Love for All and Sharing is the first step to solving all the problems of humanity.

Website I want to share. 
               
   http://www.scenetime.com
 
 
  Credit to EVERYONE for sharing and seeding back
 especially to SCENETIME.COM where i get all my 
 downloads.


 support www.scenetime.com to grow faster.

                             
                                                            
                                                   

.                 ..................................NFO:....................................*******************************************************************************
               Lawrence.Of.Arabia.1962.PART2.DVDRip.AC3.X264-BARC0DE
*******************************************************************************

-------------------------------------------------------------------------------
                              General Information
-------------------------------------------------------------------------------
Type.................: Movie
Name.................: Lawrence of Arabia
Movie Information....: http://www.imdb.com/title/tt0056172/
Genre................: Adventure | Biography | Drama | War 
-------------------------------------------------------------------------------
                                    PLOT
-------------------------------------------------------------------------------
Epic rumination on a flamboyant and controversial British military figure and his 
conflicted loyalties during wartime service. 

-------------------------------------------------------------------------------
                                    CAST
-------------------------------------------------------------------------------
Peter O'Toole	... 	T.E. Lawrence
Alec Guinness	... 	Prince Feisal
Anthony Quinn	... 	Auda Abu Tayi
Jack Hawkins	... 	General Allenby
Omar Sharif	... 	Sherif Ali
Jos Ferrer	... 	Turkish Bey (as Jose Ferrer)
Anthony Quayle	... 	Colonel Brighton
Claude Rains	... 	Mr. Dryden
Arthur Kennedy	... 	Jackson Bentley
Donald Wolfit	... 	General Murray
I.S. Johar	... 	Gasim
Gamil Ratib	... 	Majid
Michel Ray	... 	Farraj
John Dimech	... 	Daud
Zia Mohyeddin	... 	Tafas

-------------------------------------------------------------------------------
                                    MEDiA iNFO
-------------------------------------------------------------------------------

General
Complete name                    : Lawrence.Of.Arabia.1962.PART2.DVDRip.AC3.X264-BARC0DE.mkv
Format                           : Matroska
File size                        : 1.41 GiB
Duration                         : 1h 45mn
Overall bit rate                 : 1 915 Kbps

Video
ID                               : 1
Format                           : AVC
Format/Info                      : Advanced Video Codec
Format profile                   : High@L3.0
Format settings, CABAC           : Yes
Format settings, ReFrames        : 3 frames
Muxing mode                      : Container profile=Unknown@3.0
Codec ID                         : V_MPEG4/ISO/AVC
Duration                         : 1h 45mn
Bit rate                         : 1 429 Kbps
Nominal bit rate                 : 1 500 Kbps
Width                            : 720 pixels
Height                           : 320 pixels
Display aspect ratio             : 2.25:1
Frame rate                       : 25.000 fps
Resolution                       : 8 bits
Colorimetry                      : 4:2:0
Scan type                        : Progressive
Bits/(Pixel*Frame)               : 0.248
Stream size                      : 1.06 GiB (75%)
Writing library                  : x264 core 79

Audio
ID                               : 2
Format                           : AC-3
Format/Info                      : Audio Coding 3
Format_Settings_ModeExtension    : CM (complete main)
Codec ID                         : A_AC3
Duration                         : 1h 45mn
Bit rate mode                    : Constant
Bit rate                         : 448 Kbps
Channel(s)                       : 6 channels
Channel positions                : Front: L C R, Side: L R, LFE
Sampling rate                    : 48.0 KHz
Stream size                      : 339 MiB (23%)
Language                         : English

Text
ID                               : 3
Format                           : VobSub
Codec ID                         : S_VOBSUB
Codec ID/Info                    : The same subtitle format used on DVDs
Language                         : English

Menu
00:00:00.000                     : Chapter 30
00:00:03.040                     : Chapter 31
00:00:43.867                     : Chapter 32
00:03:49.907                     : Chapter 33
00:06:43.787                     : Chapter 34
00:10:44.067                     : Chapter 35
00:17:05.827                     : Chapter 36
00:21:40.707                     : Chapter 37
00:25:47.267                     : Chapter 38
00:31:56.667                     : Chapter 39
00:39:07.107                     : Chapter 40
00:40:55.187                     : Chapter 41
00:44:54.107                     : Chapter 42
00:52:11.067                     : Chapter 43
00:56:42.947                     : Chapter 44
00:59:38.227                     : Chapter 45
01:00:33.947                     : Chapter 46
01:02:51.987                     : Chapter 47
01:05:50.147                     : Chapter 48
01:11:05.827                     : Chapter 49
01:14:20.827                     : Chapter 50
01:15:17.867                     : Chapter 51
01:18:02.987                     : Chapter 52
01:27:06.787                     : Chapter 53
01:35:13.747                     : Chapter 54
01:36:49.267                     : Chapter 55
01:42:11.107                     : Chapter 56